<?xml version="1.0" encoding="utf-8"?>
<!-- Generator: Adobe Illustrator 19.0.0, SVG Export Plug-In . SVG Version: 6.00 Build 0)  -->
<svg version="1.1" id="Layer_1" xmlns="http://www.w3.org/2000/svg" xmlns:xlink="http://www.w3.org/1999/xlink" x="0px" y="0px"
	 viewBox="90 16.8 279.6 69.2" style="enable-background:new 90 16.8 279.6 69.2;" xml:space="preserve">
<style type="text/css">
	.st0{fill:#0099D3;}
	.st1{fill:#FFFFFF;}
</style>
<polygon class="st0" points="-611.6,478 -285.9,478 -288.9,612.5 -612.6,612.5 "/>
<g>
	<path class="st1" d="M-414.3,573.8h-1.1v2.2h1c0.4,0,0.8-0.1,1-0.3s0.3-0.5,0.3-0.8c0-0.4-0.1-0.6-0.3-0.8
		C-413.6,573.9-413.9,573.8-414.3,573.8z"/>
	<path class="st1" d="M-436.7,544.9c-1.9,0-3.4,0.6-4.6,1.8s-1.8,2.7-1.8,4.6c0,1.9,0.6,3.5,1.8,4.6c1.2,1.2,2.7,1.8,4.6,1.8
		c1.8,0,3.3-0.6,4.5-1.8s1.8-2.8,1.8-4.6c0-1.9-0.6-3.4-1.8-4.6S-434.9,544.9-436.7,544.9z"/>
	<path class="st1" d="M-341,545.1c-0.6-0.9-1.4-1.5-2.4-2s-2.1-0.7-3.3-0.7c-1.8,0-3.4,0.5-4.7,1.5c-1.3,1-2.2,2.4-2.7,4.3h14.5
		C-340,547-340.4,546-341,545.1z"/>
	<path class="st1" d="M-360,574.5c-0.2-0.2-0.4-0.4-0.7-0.5c-0.3-0.1-0.6-0.2-0.9-0.2s-0.6,0.1-0.9,0.2c-0.3,0.1-0.5,0.3-0.7,0.5
		s-0.3,0.5-0.4,0.7c-0.1,0.3-0.2,0.6-0.2,0.9s0.1,0.6,0.2,0.9c0.1,0.3,0.3,0.5,0.4,0.7c0.2,0.2,0.4,0.4,0.7,0.5
		c0.3,0.1,0.6,0.2,0.9,0.2s0.6-0.1,0.9-0.2c0.3-0.1,0.5-0.3,0.7-0.5s0.3-0.5,0.5-0.7c0.1-0.3,0.2-0.6,0.2-0.9s-0.1-0.6-0.2-0.9
		C-359.7,574.9-359.8,574.7-360,574.5z"/>
	<path class="st1" d="M-398.1,545.4c-0.9-0.6-2-0.9-3.1-0.9c-1.8,0-3.2,0.6-4.4,1.9s-1.7,2.9-1.7,4.9s0.6,3.6,1.7,4.9
		s2.6,1.9,4.4,1.9c1.7,0,3.2-0.6,4.3-1.9c1.2-1.3,1.7-2.9,1.7-4.9c0-1.3-0.3-2.5-0.8-3.5C-396.4,546.8-397.1,546-398.1,545.4z"/>
	<path class="st1" d="M-541.9,534.6c-2.7,1-5.1,2.4-7.2,4.5c-2,1.9-3.6,4.4-4.8,7.4s-1.8,6.4-1.8,10.3c0,3.6,0.4,6.8,1.3,9.6h14.1
		v-13h11.6v-20c-1.4-0.2-2.8-0.3-4.2-0.3C-536.2,533.1-539.2,533.6-541.9,534.6z"/>
	<polygon class="st1" points="-381.3,574.2 -382.3,577.1 -380.3,577.1 	"/>
	<path class="st1" d="M-564.4,529.9c4-4,9-6.7,14.9-8.4h-23.9V545C-571.7,539.2-568.7,534.1-564.4,529.9z"/>
	<path class="st1" d="M-269,475h-359.5l-1,140.5H-272L-269,475z M-465.5,526.5c0.4-0.7,1-1.2,1.7-1.6c0.7-0.4,1.5-0.6,2.4-0.6
		c1.3,0,2.5,0.4,3.4,1.2s1.4,1.9,1.4,3.2s-0.5,2.4-1.4,3.2s-2,1.2-3.4,1.2c-1.3,0-2.5-0.4-3.4-1.2s-1.4-1.9-1.4-3.2
		C-466.1,527.9-465.9,527.2-465.5,526.5z M-522.1,572.8h-6.6h-44.7h-6.6v-6.6v-44.7v-6.6h6.6h44.7h6.6v6.6v44.7V572.8z
		 M-472.4,560.8c-2,1.6-4.5,2.8-7.7,3.8c-3.1,1-6.3,1.5-9.6,1.5c-2.5,0-4.9-0.3-7.1-0.9c-2.2-0.6-4.3-1.5-6.1-2.8
		c-1.9-1.2-3.5-2.7-4.8-4.5c-1.4-1.8-2.4-3.8-3.1-6.2c-0.7-2.4-1.1-4.9-1.1-7.7c0-3.2,0.5-6.1,1.5-8.8s2.4-5.1,4.3-7.1
		c1.8-2,4.2-3.6,6.9-4.7c2.8-1.2,5.9-1.7,9.3-1.7c3.2,0,6.4,0.7,9.6,2s5.8,3.3,8,5.7l-7.2,6.1c-2.9-2.9-6.4-4.3-10.4-4.3
		c-1.5,0-3,0.3-4.3,0.9c-1.4,0.6-2.6,1.4-3.6,2.5s-1.8,2.4-2.4,4.1c-0.6,1.7-0.9,3.4-0.9,5.4c0,1.8,0.3,3.4,0.8,5s1.3,2.9,2.3,4.1
		c1,1.2,2.2,2.1,3.7,2.7c1.5,0.7,3.1,1,4.9,1c2.6,0,5.1-0.6,7.4-1.9v-4.9h-8.3v-8.6h17.9L-472.4,560.8L-472.4,560.8z M-456.6,566.2
		h-9.5v-29.9h9.5V566.2z M-421.2,562.9c0,1.4-0.1,2.8-0.3,4s-0.4,2.4-0.8,3.6c-0.4,1.1-0.9,2.2-1.4,3.1c-0.6,0.9-1.3,1.7-2.2,2.5
		c-0.9,0.7-1.8,1.4-2.9,1.9s-2.4,0.9-3.8,1.2c-1.4,0.3-3,0.4-4.7,0.4c-2.5,0-4.7-0.2-6.7-0.7c-2-0.4-3.9-1.2-5.7-2.2l2.1-7.7
		c3,1.7,6,2.6,9.1,2.6c2.5,0,4.4-0.5,5.8-1.6c1.4-1.1,2-2.4,2-4.1v-2.8l0,0c-2,2.2-4.8,3.3-8.2,3.3c-2.6,0-5-0.6-7.1-1.9
		c-2.1-1.3-3.7-3-4.9-5.2s-1.8-4.8-1.8-7.5c0-2.9,0.6-5.5,1.7-7.8c1.2-2.3,2.7-4.1,4.8-5.4c2-1.3,4.3-2,6.8-2c3.4,0,6.3,1.2,8.5,3.5
		h0.1v-3.6h9.6C-421.2,536.5-421.2,562.9-421.2,562.9z M-412,575.8c-0.1,0.2-0.2,0.4-0.3,0.6c-0.1,0.2-0.3,0.3-0.5,0.4
		c-0.2,0.1-0.4,0.2-0.7,0.3s-0.5,0.1-0.8,0.1h-1.1v2.4h-1.1V573h2.4c0.3,0,0.5,0,0.7,0.1s0.4,0.1,0.6,0.2s0.3,0.2,0.4,0.3
		s0.2,0.3,0.3,0.4c0.1,0.1,0.1,0.3,0.2,0.5c0,0.2,0.1,0.4,0.1,0.6C-411.9,575.3-411.9,575.5-412,575.8z M-404.1,579.5h-4.4v-6.6h4.2
		v1h-3v1.8h2.5v1h-2.6v1.8h3.2L-404.1,579.5L-404.1,579.5z M-395.1,579.5h-1.2l-3.2-4.7l0,0v4.7h-1.1v-6.6h1.1l3.2,4.8l0,0v-4.8h1.1
		v6.6H-395.1z M-387.2,578.3c-0.1,0.2-0.2,0.4-0.4,0.6c-0.2,0.2-0.3,0.3-0.5,0.4c-0.2,0.1-0.4,0.2-0.6,0.2s-0.4,0.1-0.6,0.1
		c-0.4,0-0.9-0.1-1.3-0.3s-0.8-0.4-1.1-0.8l0.7-0.9c0.2,0.3,0.5,0.5,0.8,0.6c0.3,0.2,0.6,0.2,0.9,0.2c0.4,0,0.6-0.1,0.8-0.2
		c0.2-0.1,0.3-0.3,0.3-0.6c0-0.1,0-0.2,0-0.2s0-0.1-0.1-0.2c0-0.1-0.1-0.1-0.1-0.2c-0.1-0.1-0.1-0.1-0.2-0.1s-0.1-0.1-0.2-0.1
		s-0.2-0.1-0.3-0.1c-0.1,0-0.2-0.1-0.3-0.1c-0.2-0.1-0.3-0.1-0.4-0.2c-0.1,0-0.3-0.1-0.4-0.2s-0.3-0.1-0.4-0.2s-0.2-0.2-0.3-0.3
		c-0.1-0.1-0.2-0.2-0.3-0.3s-0.1-0.2-0.2-0.4c0-0.1-0.1-0.3-0.1-0.5c0-0.3,0.1-0.7,0.3-0.9c0.2-0.3,0.4-0.5,0.8-0.7
		c0.3-0.2,0.7-0.2,1-0.2c0.8,0,1.5,0.3,2.2,0.8l-0.7,0.9c-0.5-0.5-1.1-0.7-1.5-0.7c-0.3,0-0.5,0.1-0.7,0.2c-0.2,0.1-0.3,0.3-0.3,0.6
		c0,0.2,0.1,0.4,0.3,0.6c0.1,0.1,0.4,0.2,0.9,0.4c0.6,0.2,0.9,0.4,1.1,0.5c0.4,0.2,0.7,0.5,0.8,0.9c0.1,0.2,0.1,0.4,0.1,0.7
		C-387.1,577.8-387.1,578.1-387.2,578.3z M-386.3,566.2h-8.7v-3.6h-0.1c-1.9,2.4-4.5,3.6-8,3.6c-1.9,0-3.8-0.4-5.4-1.1
		c-1.7-0.7-3.1-1.7-4.3-3c-1.2-1.3-2.1-2.8-2.8-4.7s-1-3.9-1-6.1c0-2.2,0.3-4.2,1-6c0.7-1.9,1.6-3.4,2.7-4.7s2.6-2.3,4.2-3.1
		c1.6-0.7,3.3-1.1,5.2-1.1c3.2,0,5.9,1.2,7.9,3.6h0.1v-3.7h9.2C-386.3,536.3-386.3,566.2-386.3,566.2z M-379.4,579.5l-0.5-1.4h-2.7
		l-0.5,1.4h-1.2l2.5-6.6h1.1l2.5,6.6H-379.4z M-368.4,579.5h-1.1v-4.4l0,0l-1.8,3.2h-0.7l-1.8-3.2l0,0v4.4h-1.1v-6.6h1.1l2.2,4l0,0
		l2.2-4h1C-368.4,572.9-368.4,579.5-368.4,579.5z M-369.6,544.9c-1.2,0.7-2.1,1.7-2.8,3c-0.6,1.3-0.9,2.7-0.9,4.3v13.9h-6.7v-29.7
		h6.7v4.9h0.1c1.2-1.6,2.5-2.8,4.1-3.6s3.3-1.3,5-1.3c0.4,0,0.7,0,0.8,0v7.5c-0.8-0.1-1.4-0.1-2-0.1
		C-367,543.8-368.4,544.2-369.6,544.9z M-358.5,577.5c-0.2,0.4-0.4,0.8-0.7,1.1c-0.3,0.3-0.7,0.5-1.1,0.7s-0.9,0.2-1.3,0.2
		c-0.5,0-0.9-0.1-1.4-0.3s-0.8-0.4-1.1-0.7c-0.3-0.3-0.5-0.7-0.7-1.1c-0.2-0.4-0.2-0.9-0.2-1.4s0.1-0.9,0.2-1.3
		c0.2-0.4,0.4-0.8,0.7-1.1c0.3-0.3,0.6-0.5,1.1-0.7s0.9-0.3,1.4-0.3s0.9,0.1,1.3,0.2c0.4,0.1,0.8,0.4,1.1,0.7
		c0.3,0.3,0.5,0.7,0.7,1.1s0.3,0.9,0.3,1.4S-358.3,577.1-358.5,577.5z M-350.6,578.3c-0.1,0.2-0.2,0.4-0.4,0.6
		c-0.2,0.2-0.3,0.3-0.5,0.4s-0.4,0.2-0.6,0.2s-0.4,0.1-0.6,0.1c-0.4,0-0.9-0.1-1.3-0.3s-0.8-0.4-1.1-0.8l0.7-0.9
		c0.2,0.3,0.5,0.5,0.8,0.6c0.3,0.2,0.6,0.2,0.9,0.2c0.4,0,0.6-0.1,0.8-0.2c0.2-0.1,0.3-0.3,0.3-0.6c0-0.1,0-0.2,0-0.2s0-0.1-0.1-0.2
		c0-0.1-0.1-0.1-0.1-0.2c-0.1-0.1-0.1-0.1-0.2-0.1s-0.1-0.1-0.2-0.1s-0.2-0.1-0.3-0.1c-0.1,0-0.2-0.1-0.3-0.1
		c-0.2-0.1-0.3-0.1-0.4-0.2c-0.1,0-0.3-0.1-0.4-0.2c-0.1-0.1-0.3-0.1-0.4-0.2c-0.1-0.1-0.2-0.2-0.3-0.3s-0.2-0.2-0.3-0.3
		s-0.1-0.2-0.2-0.4s-0.1-0.3-0.1-0.5c0-0.3,0.1-0.7,0.3-0.9c0.2-0.3,0.4-0.5,0.8-0.7c0.3-0.2,0.7-0.2,1-0.2c0.8,0,1.5,0.3,2.2,0.8
		l-0.7,0.9c-0.5-0.5-1.1-0.7-1.5-0.7c-0.3,0-0.5,0.1-0.7,0.2c-0.2,0.1-0.3,0.3-0.3,0.6c0,0.2,0.1,0.4,0.3,0.6
		c0.1,0.1,0.4,0.2,0.9,0.4c0.6,0.2,0.9,0.4,1.1,0.5c0.4,0.2,0.7,0.5,0.8,0.9c0.1,0.2,0.1,0.4,0.1,0.7
		C-350.4,577.8-350.5,578.1-350.6,578.3z M-338.9,579.5h-4.4v-6.6h4.2v1h-3v1.8h2.5v1h-2.5v1.8h3.2
		C-338.9,578.5-338.9,579.5-338.9,579.5z M-339.3,564.6c-2.1,1-4.4,1.5-7.1,1.5c-2.8,0-5.3-0.6-7.5-1.8s-4-3-5.3-5.2
		c-1.3-2.3-1.9-4.9-1.9-7.8c0-2.2,0.4-4.2,1.1-6s1.7-3.4,2.9-4.7c1.3-1.3,2.7-2.3,4.5-3s3.6-1.1,5.6-1.1c2.8,0,5.3,0.6,7.4,1.9
		s3.8,3,4.9,5.2s1.7,4.7,1.7,7.5c0,1.1-0.1,1.9-0.2,2.6h-21c0.4,2,1.4,3.7,2.8,4.8c1.5,1.2,3.3,1.8,5.4,1.8c3,0,5.4-1.1,7.2-3.4
		l4.6,4C-335.5,562.3-337.2,563.7-339.3,564.6z M-329.9,579.5h-1.2l-3.2-4.7l0,0v4.7h-1.1v-6.6h1.1l3.2,4.8l0,0v-4.8h1.1v6.6H-329.9
		z M-319.3,579.5h-1.6l-2.4-6.6h1.9l1.3,4.1l0,0l1.3-4.1h1.9L-319.3,579.5z M-308.1,577.5c-0.2,0.4-0.4,0.8-0.7,1.1
		c-0.3,0.3-0.7,0.5-1.1,0.7s-0.9,0.2-1.4,0.2s-1-0.1-1.4-0.3s-0.8-0.4-1.1-0.7c-0.3-0.3-0.5-0.7-0.7-1.1c-0.2-0.4-0.3-0.9-0.3-1.4
		s0.1-1,0.3-1.4c0.2-0.4,0.4-0.8,0.7-1.1c0.3-0.3,0.7-0.5,1.1-0.7s0.9-0.3,1.4-0.3s1,0.1,1.4,0.2s0.8,0.4,1.1,0.7
		c0.3,0.3,0.5,0.7,0.7,1.1c0.2,0.4,0.3,0.9,0.3,1.4C-307.8,576.7-307.9,577.1-308.1,577.5z M-300.4,578c-0.1,0.2-0.1,0.4-0.2,0.5
		s-0.2,0.3-0.3,0.4s-0.3,0.2-0.4,0.3s-0.3,0.1-0.5,0.2c-0.2,0.1-0.3,0.1-0.5,0.1s-0.3,0-0.5,0c-0.4,0-0.9-0.1-1.3-0.3
		s-0.8-0.4-1.2-0.8l1-1.2c0.2,0.3,0.5,0.4,0.8,0.6s0.5,0.2,0.7,0.2s0.3,0,0.4-0.1s0.1-0.2,0.1-0.3s-0.1-0.2-0.2-0.3
		s-0.3-0.2-0.7-0.3c-0.2-0.1-0.3-0.1-0.4-0.2c-0.1,0-0.3-0.1-0.4-0.2c-0.1-0.1-0.3-0.2-0.4-0.2s-0.2-0.2-0.3-0.3
		c-0.1-0.1-0.2-0.2-0.3-0.4c-0.1-0.1-0.1-0.3-0.2-0.4c0-0.2-0.1-0.3-0.1-0.5c0-0.4,0.1-0.7,0.3-1c0.2-0.3,0.5-0.5,0.8-0.7
		s0.7-0.3,1.1-0.3s0.9,0.1,1.3,0.2c0.4,0.2,0.8,0.4,1.1,0.7l-1,1.3c-0.3-0.2-0.5-0.4-0.7-0.5s-0.4-0.1-0.5-0.1c-0.2,0-0.3,0-0.3,0.1
		c-0.1,0.1-0.1,0.2-0.1,0.3s0.1,0.2,0.2,0.3s0.3,0.2,0.6,0.3c0.6,0.2,0.9,0.4,1.1,0.5c0.4,0.2,0.7,0.5,0.8,0.8
		c0.1,0.2,0.1,0.5,0.1,0.7C-300.3,577.6-300.4,577.8-300.4,578z M-306.6,565.6v-3.9h-0.1c-2.2,2.9-5.3,4.3-9.4,4.3
		c-1.6,0-3.1-0.2-4.5-0.7c-1.4-0.4-2.7-1.1-3.9-2c-1.1-0.9-2.1-1.9-3-3.1c-0.8-1.2-1.5-2.5-1.9-4.1c-0.5-1.5-0.7-3.2-0.7-4.9
		c0-2.1,0.4-4.1,1.1-6s1.7-3.5,2.9-4.8c1.2-1.3,2.7-2.3,4.4-3.1c1.7-0.7,3.5-1.1,5.5-1.1c3.9,0,6.9,1.3,9.1,3.9h0.1v-18.7h6.6v44.1
		L-306.6,565.6L-306.6,565.6z"/>
	<path class="st1" d="M-315,542.4c-1.2,0-2.2,0.2-3.2,0.6c-1,0.4-1.9,1-2.6,1.8s-1.3,1.7-1.8,2.9c-0.4,1.1-0.6,2.4-0.6,3.7
		c0,2.6,0.8,4.6,2.3,6.3s3.5,2.4,6,2.4c2.4,0,4.4-0.8,6-2.4s2.4-3.7,2.4-6.3s-0.8-4.7-2.4-6.4C-310.6,543.2-312.6,542.4-315,542.4z"
		/>
	<path class="st1" d="M-310.4,574.6c-0.2-0.2-0.5-0.2-0.8-0.2s-0.6,0.1-0.8,0.2s-0.4,0.4-0.6,0.6c-0.1,0.3-0.2,0.6-0.2,0.9
		s0.1,0.6,0.2,0.9c0.1,0.3,0.3,0.5,0.6,0.6c0.2,0.2,0.5,0.2,0.8,0.2s0.6-0.1,0.8-0.2c0.2-0.2,0.4-0.4,0.6-0.6
		c0.1-0.3,0.2-0.6,0.2-0.9s-0.1-0.6-0.2-0.9C-310,575-310.2,574.8-310.4,574.6z"/>
</g>
<rect x="-418.5" y="569.9" class="st1" width="118.1" height="33.3"/>
<g>
	<path class="st0" d="M90,24.4v43.2h2.4h17.3h23.4h0.2V54.1V37.5V25.8v-1.5H90V24.4z M92.5,26.9L92.5,26.9h20.4
		c-5,1.4-9.3,3.8-12.7,7.2C96.5,37.7,94,42,92.5,47L92.5,26.9L92.5,26.9z M130.8,54.1L130.8,54.1h-10v11h-12
		c-0.7-2.4-1.1-5.1-1.1-8.2c0-3.3,0.5-6.3,1.5-8.8s2.4-4.7,4.1-6.3c1.8-1.7,3.9-3,6.2-3.8c2.3-0.8,4.8-1.2,7.6-1.2
		c1.2,0,2.5,0.1,3.7,0.3L130.8,54.1L130.8,54.1z"/>
	<g>
		<path class="st0" d="M181.5,64.6c-1.8,0.7-4.3,1.4-7.3,2.2c-3,0.7-6,1-9,1c-7,0-12.4-1.9-16.4-5.7c-3.9-3.8-5.9-9-5.9-15.7
			c0-6.4,2-11.5,6-15.4s9.5-5.9,16.6-5.9c2.7,0,5.3,0.2,7.7,0.7c2.4,0.5,5.2,1.5,8.1,2.9v9.6h-1.2c-0.5-0.4-1.3-0.9-2.3-1.6
			s-1.9-1.3-2.9-1.8c-1.1-0.6-2.3-1.1-3.7-1.5s-2.9-0.6-4.5-0.6c-1.9,0-3.5,0.3-5.1,0.8c-1.5,0.6-2.9,1.4-4.1,2.5
			c-1.1,1.1-2.1,2.5-2.7,4.2c-0.7,1.7-1,3.7-1,5.9c0,4.5,1.2,8,3.6,10.4s5.9,3.6,10.6,3.6c0.4,0,0.8,0,1.3,0s0.9,0,1.3-0.1v-8h-8.2
			v-7.7h18.9v20.2H181.5z"/>
		<path class="st0" d="M200.6,31.7h-10.5v-7.5h10.5V31.7z M200.3,67L200.3,67h-9.9V36.1h9.9V67z"/>
		<path class="st0" d="M239.7,63.4c0,2.9-0.4,5.3-1.2,7.3s-2,3.5-3.5,4.6c-1.5,1.2-3.3,2-5.4,2.5c-2.1,0.5-4.5,0.8-7.1,0.8
			c-2.2,0-4.3-0.1-6.3-0.4c-2.1-0.2-3.9-0.6-5.4-0.9v-7.7h1.2c1.2,0.5,2.7,0.9,4.4,1.3c1.8,0.4,3.3,0.6,4.7,0.6
			c1.8,0,3.3-0.2,4.5-0.5c1.1-0.3,2-0.8,2.6-1.4s1-1.3,1.2-2.3c0.3-0.9,0.4-2,0.4-3.3v-0.6c-1.2,1-2.5,1.7-4,2.3
			c-1.4,0.5-3.1,0.8-4.8,0.8c-4.3,0-7.6-1.3-10-3.9c-2.3-2.6-3.5-6.6-3.5-11.9c0-2.6,0.4-4.8,1.1-6.6c0.7-1.9,1.7-3.5,3-4.9
			c1.2-1.3,2.7-2.3,4.5-3s3.6-1.1,5.4-1.1c1.7,0,3.2,0.2,4.5,0.6c1.4,0.4,2.6,1,3.7,1.6l0.4-1.4h9.6L239.7,63.4L239.7,63.4z
			 M229.8,57.2L229.8,57.2v-14c-0.6-0.2-1.3-0.4-2.1-0.6c-0.8-0.1-1.6-0.2-2.2-0.2c-2.6,0-4.6,0.7-5.8,2.2c-1.3,1.5-2,3.6-2,6.3
			c0,3,0.6,5,1.7,6.2c1.1,1.2,2.7,1.8,4.9,1.8c1,0,2-0.2,2.9-0.5C228.1,58.2,229,57.7,229.8,57.2"/>
		<path class="st0" d="M267.7,63.7c-0.5,0.4-1.2,0.9-2,1.5c-0.8,0.6-1.5,1-2.2,1.4c-1,0.4-2,0.8-3,1s-2.2,0.3-3.4,0.3
			c-2.9,0-5.4-0.9-7.4-2.7c-2-1.8-3-4.1-3-6.9c0-2.3,0.5-4.1,1.5-5.5s2.4-2.5,4.3-3.4c1.8-0.8,4.1-1.4,6.8-1.8
			c2.7-0.3,5.5-0.6,8.4-0.8v-0.2c0-1.7-0.7-2.9-2.1-3.5c-1.4-0.7-3.4-1-6.1-1c-1.7,0-3.4,0.3-5.2,0.9s-3.2,1-4,1.3h-0.9v-7.5
			c1-0.3,2.7-0.6,5.1-1s4.7-0.6,7.1-0.6c5.6,0,9.7,0.9,12.2,2.6s3.7,4.4,3.7,8.1v21h-9.8V63.7L267.7,63.7z M267.7,58.9L267.7,58.9
			v-6.4c-1.3,0.1-2.8,0.3-4.3,0.5c-1.6,0.2-2.7,0.4-3.6,0.7c-1,0.3-1.7,0.8-2.3,1.4c-0.5,0.6-0.8,1.4-0.8,2.4c0,0.6,0,1.2,0.2,1.6
			c0.1,0.4,0.4,0.8,0.8,1.2c0.4,0.4,0.9,0.6,1.5,0.8c0.6,0.2,1.5,0.3,2.7,0.3c1,0,2-0.2,3-0.6C266.1,60.1,267,59.5,267.7,58.9"/>
	</g>
	<g>
		<path class="st0" d="M306.3,41.9H306c-0.8-0.2-1.5-0.3-2.2-0.4c-0.7-0.1-1.6-0.1-2.6-0.1c-1.6,0-3.1,0.3-4.6,1.1
			c-1.5,0.7-2.9,1.6-4.3,2.7V67h-5.2V36.3h5.2v4.5c2.1-1.6,3.9-2.8,5.4-3.5c1.6-0.7,3.2-1,4.8-1c0.9,0,1.5,0,2,0.1
			c0.4,0,1,0.1,1.8,0.2V41.9z"/>
		<path class="st0" d="M336.8,52.1h-22.6c0,1.9,0.3,3.5,0.8,4.9c0.6,1.4,1.4,2.6,2.3,3.5c1,0.9,2.1,1.5,3.4,2
			c1.3,0.4,2.7,0.7,4.3,0.7c2.1,0,4.2-0.4,6.3-1.3c2.1-0.8,3.6-1.6,4.5-2.5h0.3V65c-1.7,0.7-3.5,1.3-5.3,1.8s-3.7,0.7-5.7,0.7
			c-5.1,0-9.1-1.4-11.9-4.1c-2.9-2.8-4.3-6.7-4.3-11.8c0-5,1.4-9,4.1-11.9c2.7-3,6.3-4.4,10.8-4.4c4.1,0,7.3,1.2,9.6,3.6
			c2.2,2.4,3.4,5.9,3.4,10.3L336.8,52.1L336.8,52.1z M331.8,48.2L331.8,48.2c0-2.7-0.7-4.8-2.1-6.3c-1.3-1.5-3.4-2.2-6.1-2.2
			c-2.8,0-5,0.8-6.6,2.5c-1.6,1.6-2.6,3.7-2.8,6.1h17.6V48.2z"/>
		<path class="st0" d="M369.6,67h-5.2v-3.2c-1.5,1.3-3,2.3-4.7,3c-1.6,0.7-3.4,1.1-5.2,1.1c-3.7,0-6.6-1.4-8.7-4.2
			c-2.1-2.8-3.2-6.7-3.2-11.7c0-2.6,0.4-4.9,1.1-7c0.7-2,1.8-3.8,3-5.2c1.2-1.4,2.7-2.5,4.3-3.2c1.7-0.7,3.4-1.1,5.2-1.1
			c1.6,0,3,0.2,4.3,0.5c1.3,0.3,2.6,0.9,4,1.6V24.3h5.2V67H369.6z M364.4,59.4L364.4,59.4V41.8c-1.4-0.6-2.6-1.1-3.7-1.3
			c-1.1-0.2-2.3-0.4-3.6-0.4c-2.9,0-5.2,1-6.8,3c-1.6,2-2.4,4.9-2.4,8.6c0,3.6,0.6,6.4,1.9,8.3c1.2,1.9,3.2,2.8,6,2.8
			c1.5,0,3-0.3,4.5-1C361.7,61.3,363.1,60.4,364.4,59.4"/>
	</g>
</g>
<g>
	<g>
		<path class="st0" d="M250.2,72.7h3c0.5,0,1,0.1,1.5,0.2c0.4,0.1,0.8,0.3,1.1,0.5c0.3,0.2,0.6,0.5,0.7,0.9c0.2,0.4,0.3,0.8,0.3,1.3
			c0,0.5-0.1,0.9-0.3,1.3c-0.2,0.4-0.4,0.7-0.7,0.9c-0.3,0.2-0.7,0.4-1.2,0.5c-0.5,0.1-1,0.2-1.5,0.2h-1.9v5h-1.1V72.7z M251.3,77.6
			h1.9c0.9,0,1.5-0.2,2-0.5c0.4-0.3,0.7-0.8,0.7-1.5c0-0.7-0.2-1.2-0.7-1.5c-0.5-0.3-1.1-0.5-1.9-0.5h-1.9V77.6z"/>
		<path class="st0" d="M264.3,79.7c0,0.1,0,0.2,0,0.2c0,0.1,0,0.2,0,0.3h-5.9c0,0.4,0.1,0.7,0.2,1c0.1,0.3,0.3,0.6,0.5,0.8
			c0.2,0.2,0.5,0.4,0.8,0.6c0.3,0.1,0.7,0.2,1,0.2c0.5,0,1-0.1,1.4-0.4c0.4-0.2,0.7-0.5,0.9-0.9l0.8,0.6c-0.4,0.5-0.9,0.9-1.4,1.2
			c-0.5,0.2-1.1,0.4-1.7,0.4c-0.5,0-1-0.1-1.5-0.3c-0.5-0.2-0.8-0.4-1.2-0.8c-0.3-0.3-0.6-0.7-0.8-1.2c-0.2-0.5-0.3-1-0.3-1.5
			c0-0.5,0.1-1,0.3-1.5c0.2-0.5,0.4-0.9,0.8-1.2c0.3-0.3,0.7-0.6,1.1-0.8c0.4-0.2,0.9-0.3,1.4-0.3c0.6,0,1,0.1,1.5,0.3
			c0.4,0.2,0.8,0.4,1.1,0.8c0.3,0.3,0.5,0.7,0.6,1.1C264.3,78.8,264.3,79.2,264.3,79.7z M263.3,79.4c0-0.7-0.2-1.2-0.6-1.7
			c-0.4-0.4-1-0.7-1.7-0.7c-0.3,0-0.7,0.1-1,0.2c-0.3,0.1-0.6,0.3-0.8,0.5c-0.2,0.2-0.4,0.5-0.5,0.7c-0.1,0.3-0.2,0.6-0.2,0.9H263.3
			z"/>
		<path class="st0" d="M267.5,76.4c0,0.2,0,0.4,0,0.6c0,0.2,0,0.4,0,0.6h0c0.2-0.4,0.5-0.7,1-1c0.5-0.3,0.9-0.4,1.4-0.4
			c0.9,0,1.6,0.3,2,0.8c0.5,0.5,0.7,1.2,0.7,2.1v4.4h-1v-3.9c0-0.4,0-0.7-0.1-1c-0.1-0.3-0.2-0.6-0.3-0.8c-0.1-0.2-0.3-0.4-0.6-0.5
			c-0.2-0.1-0.6-0.2-0.9-0.2c-0.3,0-0.5,0.1-0.8,0.2c-0.3,0.1-0.5,0.3-0.7,0.5c-0.2,0.2-0.4,0.5-0.5,0.9c-0.1,0.3-0.2,0.8-0.2,1.2
			v3.7h-1V78c0-0.2,0-0.4,0-0.7c0-0.3,0-0.6,0-0.8H267.5z"/>
		<path class="st0" d="M279.2,78.1c-0.1-0.3-0.4-0.5-0.7-0.7c-0.3-0.2-0.7-0.3-1.1-0.3c-0.2,0-0.4,0-0.5,0.1c-0.2,0-0.3,0.1-0.5,0.2
			c-0.1,0.1-0.3,0.2-0.3,0.3c-0.1,0.1-0.1,0.3-0.1,0.5c0,0.3,0.1,0.6,0.4,0.8c0.3,0.2,0.7,0.3,1.3,0.4c0.8,0.2,1.5,0.4,1.9,0.7
			c0.4,0.3,0.6,0.8,0.6,1.3c0,0.4-0.1,0.7-0.2,1c-0.2,0.3-0.4,0.5-0.6,0.7c-0.3,0.2-0.5,0.3-0.9,0.4c-0.3,0.1-0.6,0.1-1,0.1
			c-0.5,0-1.1-0.1-1.6-0.3c-0.5-0.2-0.9-0.6-1.2-1l0.8-0.6c0.2,0.3,0.5,0.6,0.8,0.8c0.4,0.2,0.7,0.3,1.2,0.3c0.2,0,0.4,0,0.6-0.1
			c0.2,0,0.4-0.1,0.5-0.2c0.2-0.1,0.3-0.2,0.4-0.4c0.1-0.2,0.1-0.4,0.1-0.6c0-0.4-0.2-0.7-0.5-0.8c-0.4-0.2-0.9-0.4-1.6-0.5
			c-0.2-0.1-0.4-0.1-0.7-0.2c-0.2-0.1-0.5-0.2-0.7-0.3c-0.2-0.1-0.4-0.3-0.5-0.6c-0.1-0.2-0.2-0.5-0.2-0.8c0-0.4,0.1-0.7,0.2-0.9
			c0.1-0.3,0.3-0.5,0.6-0.6c0.2-0.2,0.5-0.3,0.8-0.4c0.3-0.1,0.6-0.1,0.9-0.1c0.5,0,1,0.1,1.4,0.3c0.5,0.2,0.8,0.5,1,0.9L279.2,78.1
			z"/>
		<path class="st0" d="M286.6,78.9c0-0.6-0.2-1.1-0.5-1.4c-0.3-0.3-0.8-0.5-1.4-0.5c-0.4,0-0.8,0.1-1.2,0.2
			c-0.4,0.1-0.7,0.4-0.9,0.6l-0.6-0.7c0.3-0.3,0.7-0.5,1.2-0.7c0.5-0.2,1-0.3,1.6-0.3c0.4,0,0.7,0.1,1.1,0.2
			c0.3,0.1,0.6,0.3,0.9,0.5c0.3,0.2,0.4,0.5,0.6,0.8c0.1,0.3,0.2,0.7,0.2,1.1v3.1c0,0.3,0,0.6,0,0.9c0,0.3,0.1,0.5,0.1,0.7h-0.9
			c0-0.2-0.1-0.4-0.1-0.6c0-0.2,0-0.4,0-0.6h0c-0.3,0.5-0.7,0.8-1.1,1c-0.4,0.2-0.9,0.3-1.5,0.3c-0.3,0-0.6,0-0.8-0.1
			c-0.3-0.1-0.6-0.2-0.8-0.4c-0.2-0.2-0.4-0.4-0.6-0.7c-0.2-0.3-0.2-0.6-0.2-1c0-0.6,0.1-1,0.4-1.3c0.3-0.3,0.6-0.6,1.1-0.7
			c0.5-0.2,1-0.3,1.6-0.3c0.6,0,1.2-0.1,1.9-0.1V78.9z M286.3,79.9c-0.4,0-0.9,0-1.3,0.1c-0.4,0-0.8,0.1-1.2,0.2
			c-0.4,0.1-0.6,0.3-0.9,0.5c-0.2,0.2-0.3,0.5-0.3,0.8c0,0.3,0,0.5,0.1,0.6c0.1,0.2,0.2,0.3,0.4,0.4c0.2,0.1,0.3,0.2,0.5,0.2
			c0.2,0,0.4,0.1,0.6,0.1c0.4,0,0.7-0.1,1-0.2c0.3-0.1,0.5-0.3,0.7-0.5c0.2-0.2,0.3-0.5,0.4-0.8c0.1-0.3,0.2-0.6,0.2-0.9v-0.5H286.3
			z"/>
		<path class="st0" d="M292.2,76.6c0.4-0.3,0.9-0.4,1.4-0.4c0.2,0,0.4,0,0.6,0.1c0.2,0,0.4,0.1,0.6,0.2c0.2,0.1,0.4,0.3,0.5,0.5
			c0.2,0.2,0.3,0.4,0.4,0.7c0.2-0.5,0.6-0.9,1-1.1c0.4-0.3,0.9-0.4,1.5-0.4c0.9,0,1.6,0.3,2,0.8c0.4,0.5,0.7,1.2,0.7,2.1v4.4h-1
			v-3.9c0-0.7-0.1-1.4-0.4-1.8c-0.3-0.5-0.8-0.7-1.4-0.7c-0.4,0-0.7,0.1-1,0.2c-0.3,0.1-0.5,0.4-0.6,0.6c-0.2,0.2-0.3,0.5-0.3,0.8
			c-0.1,0.3-0.1,0.6-0.1,1v3.8h-1v-4.2c0-0.3,0-0.7-0.1-0.9c-0.1-0.3-0.1-0.5-0.3-0.7c-0.1-0.2-0.3-0.4-0.5-0.5
			c-0.2-0.1-0.5-0.2-0.8-0.2c-0.2,0-0.5,0.1-0.7,0.2c-0.2,0.1-0.5,0.3-0.7,0.5c-0.2,0.2-0.4,0.5-0.5,0.9c-0.1,0.3-0.2,0.8-0.2,1.2
			v3.7h-1V78c0-0.2,0-0.4,0-0.7c0-0.3,0-0.6,0-0.8h1c0,0.2,0,0.4,0,0.6c0,0.2,0,0.4,0,0.6h0C291.5,77.2,291.8,76.9,292.2,76.6z"/>
		<path class="st0" d="M310.7,79.9c0,0.5-0.1,1-0.3,1.5c-0.2,0.5-0.4,0.9-0.8,1.2c-0.3,0.3-0.7,0.6-1.2,0.8c-0.5,0.2-1,0.3-1.5,0.3
			c-0.6,0-1.1-0.1-1.5-0.3c-0.5-0.2-0.9-0.4-1.2-0.8c-0.3-0.3-0.6-0.7-0.8-1.2c-0.2-0.5-0.3-1-0.3-1.5c0-0.5,0.1-1,0.3-1.5
			c0.2-0.5,0.4-0.9,0.8-1.2c0.3-0.3,0.7-0.6,1.2-0.8c0.5-0.2,1-0.3,1.5-0.3c0.6,0,1.1,0.1,1.5,0.3c0.5,0.2,0.9,0.5,1.2,0.8
			c0.3,0.3,0.6,0.7,0.8,1.2C310.6,78.9,310.7,79.4,310.7,79.9z M309.6,79.9c0-0.4-0.1-0.8-0.2-1.1c-0.1-0.3-0.3-0.7-0.5-0.9
			c-0.2-0.3-0.5-0.5-0.9-0.6c-0.3-0.2-0.7-0.2-1.1-0.2c-0.4,0-0.8,0.1-1.1,0.2c-0.3,0.1-0.6,0.4-0.8,0.6c-0.2,0.3-0.4,0.6-0.5,0.9
			c-0.1,0.4-0.2,0.7-0.2,1.1c0,0.4,0.1,0.8,0.2,1.1c0.1,0.4,0.3,0.7,0.5,0.9c0.2,0.3,0.5,0.5,0.8,0.6c0.3,0.1,0.7,0.2,1.1,0.2
			c0.4,0,0.8-0.1,1.1-0.2c0.3-0.1,0.6-0.3,0.9-0.6c0.2-0.3,0.4-0.6,0.5-0.9C309.6,80.7,309.6,80.3,309.6,79.9z"/>
		<path class="st0" d="M316.7,78.1c-0.2-0.3-0.4-0.5-0.7-0.7c-0.3-0.2-0.7-0.3-1.1-0.3c-0.2,0-0.4,0-0.5,0.1c-0.2,0-0.3,0.1-0.5,0.2
			c-0.1,0.1-0.3,0.2-0.3,0.3c-0.1,0.1-0.1,0.3-0.1,0.5c0,0.3,0.1,0.6,0.4,0.8c0.3,0.2,0.7,0.3,1.3,0.4c0.8,0.2,1.5,0.4,1.9,0.7
			c0.4,0.3,0.6,0.8,0.6,1.3c0,0.4-0.1,0.7-0.2,1c-0.2,0.3-0.4,0.5-0.6,0.7c-0.3,0.2-0.5,0.3-0.9,0.4c-0.3,0.1-0.6,0.1-1,0.1
			c-0.5,0-1.1-0.1-1.6-0.3c-0.5-0.2-0.9-0.6-1.2-1l0.8-0.6c0.2,0.3,0.5,0.6,0.8,0.8c0.4,0.2,0.7,0.3,1.2,0.3c0.2,0,0.4,0,0.6-0.1
			c0.2,0,0.4-0.1,0.5-0.2c0.2-0.1,0.3-0.2,0.4-0.4c0.1-0.2,0.1-0.4,0.1-0.6c0-0.4-0.2-0.7-0.5-0.8c-0.4-0.2-0.9-0.4-1.6-0.5
			c-0.2-0.1-0.4-0.1-0.7-0.2c-0.2-0.1-0.5-0.2-0.7-0.3c-0.2-0.1-0.4-0.3-0.5-0.6c-0.1-0.2-0.2-0.5-0.2-0.8c0-0.4,0.1-0.7,0.2-0.9
			c0.1-0.3,0.3-0.5,0.6-0.6c0.2-0.2,0.5-0.3,0.8-0.4c0.3-0.1,0.6-0.1,0.9-0.1c0.5,0,1,0.1,1.4,0.3c0.5,0.2,0.8,0.5,1.1,0.9
			L316.7,78.1z"/>
		<path class="st0" d="M330,79.7c0,0.1,0,0.2,0,0.2c0,0.1,0,0.2,0,0.3h-5.9c0,0.4,0.1,0.7,0.2,1c0.1,0.3,0.3,0.6,0.5,0.8
			c0.2,0.2,0.5,0.4,0.8,0.6c0.3,0.1,0.7,0.2,1,0.2c0.5,0,1-0.1,1.4-0.4c0.4-0.2,0.7-0.5,0.9-0.9l0.8,0.6c-0.4,0.5-0.9,0.9-1.4,1.2
			c-0.5,0.2-1.1,0.4-1.6,0.4c-0.5,0-1-0.1-1.5-0.3c-0.4-0.2-0.8-0.4-1.2-0.8c-0.3-0.3-0.6-0.7-0.8-1.2c-0.2-0.5-0.3-1-0.3-1.5
			c0-0.5,0.1-1,0.3-1.5c0.2-0.5,0.4-0.9,0.8-1.2c0.3-0.3,0.7-0.6,1.1-0.8c0.4-0.2,0.9-0.3,1.4-0.3c0.6,0,1,0.1,1.5,0.3
			c0.4,0.2,0.8,0.4,1.1,0.8c0.3,0.3,0.5,0.7,0.6,1.1C329.9,78.8,330,79.2,330,79.7z M328.9,79.4c0-0.7-0.2-1.2-0.6-1.7
			c-0.4-0.4-1-0.7-1.7-0.7c-0.3,0-0.7,0.1-1,0.2c-0.3,0.1-0.6,0.3-0.8,0.5c-0.2,0.2-0.4,0.5-0.5,0.7c-0.1,0.3-0.2,0.6-0.2,0.9H328.9
			z"/>
		<path class="st0" d="M333.1,76.4c0,0.2,0,0.4,0,0.6c0,0.2,0,0.4,0,0.6h0c0.2-0.4,0.5-0.7,1-1c0.5-0.3,0.9-0.4,1.4-0.4
			c0.9,0,1.6,0.3,2,0.8c0.4,0.5,0.7,1.2,0.7,2.1v4.4h-1v-3.9c0-0.4,0-0.7-0.1-1c-0.1-0.3-0.2-0.6-0.3-0.8c-0.1-0.2-0.3-0.4-0.6-0.5
			c-0.3-0.1-0.6-0.2-0.9-0.2c-0.3,0-0.5,0.1-0.8,0.2c-0.3,0.1-0.5,0.3-0.7,0.5c-0.2,0.2-0.4,0.5-0.5,0.9c-0.1,0.3-0.2,0.8-0.2,1.2
			v3.7h-1V78c0-0.2,0-0.4,0-0.7c0-0.3,0-0.6,0-0.8H333.1z"/>
		<path class="st0" d="M349.9,83.5h-2.6l-4.1-10.8h2.9l2.5,7.6h0.1l2.5-7.6h2.9L349.9,83.5z"/>
		<path class="st0" d="M362.2,79.7c0,0.6-0.1,1.2-0.3,1.7c-0.2,0.5-0.5,0.9-0.9,1.3c-0.4,0.4-0.8,0.6-1.3,0.8
			c-0.5,0.2-1,0.3-1.6,0.3c-0.6,0-1.1-0.1-1.6-0.3c-0.5-0.2-1-0.5-1.3-0.8c-0.4-0.3-0.7-0.8-0.9-1.3c-0.2-0.5-0.3-1.1-0.3-1.7
			c0-0.6,0.1-1.2,0.3-1.7c0.2-0.5,0.5-0.9,0.9-1.3c0.4-0.3,0.8-0.6,1.3-0.8c0.5-0.2,1-0.3,1.6-0.3c0.6,0,1.1,0.1,1.6,0.3
			c0.5,0.2,1,0.4,1.3,0.8c0.4,0.3,0.7,0.8,0.9,1.3C362.1,78.5,362.2,79.1,362.2,79.7z M359.8,79.7c0-0.2,0-0.5-0.1-0.7
			c-0.1-0.2-0.2-0.4-0.4-0.6c-0.2-0.2-0.3-0.3-0.6-0.4c-0.2-0.1-0.5-0.2-0.8-0.2c-0.3,0-0.6,0.1-0.8,0.2c-0.2,0.1-0.4,0.3-0.6,0.4
			c-0.1,0.2-0.3,0.4-0.3,0.6c-0.1,0.2-0.1,0.5-0.1,0.7c0,0.2,0,0.5,0.1,0.7c0.1,0.2,0.2,0.4,0.3,0.6c0.2,0.2,0.3,0.3,0.6,0.4
			c0.2,0.1,0.5,0.2,0.8,0.2c0.3,0,0.6-0.1,0.8-0.2c0.2-0.1,0.4-0.3,0.6-0.4c0.2-0.2,0.3-0.4,0.3-0.6
			C359.8,80.2,359.8,79.9,359.8,79.7z"/>
		<path class="st0" d="M368.2,78.2c-0.2-0.2-0.4-0.4-0.7-0.5c-0.3-0.1-0.6-0.2-0.9-0.2c-0.2,0-0.4,0-0.6,0.1
			c-0.2,0.1-0.3,0.2-0.3,0.5c0,0.2,0.1,0.4,0.3,0.5c0.2,0.1,0.6,0.2,1.1,0.3c0.3,0.1,0.6,0.1,0.9,0.3c0.3,0.1,0.5,0.3,0.8,0.4
			c0.2,0.2,0.4,0.4,0.6,0.7c0.1,0.3,0.2,0.6,0.2,0.9c0,0.5-0.1,0.9-0.3,1.2c-0.2,0.3-0.4,0.6-0.8,0.8c-0.3,0.2-0.7,0.3-1,0.4
			c-0.4,0.1-0.8,0.1-1.2,0.1c-0.6,0-1.2-0.1-1.8-0.3c-0.6-0.2-1.1-0.5-1.5-0.9l1.4-1.5c0.2,0.2,0.5,0.4,0.8,0.6
			c0.3,0.2,0.7,0.2,1,0.2c0.2,0,0.4,0,0.6-0.1c0.2-0.1,0.3-0.3,0.3-0.5c0-0.2-0.1-0.4-0.4-0.5c-0.2-0.1-0.6-0.2-1.1-0.4
			c-0.3-0.1-0.5-0.1-0.8-0.2c-0.3-0.1-0.5-0.2-0.7-0.4c-0.2-0.2-0.4-0.4-0.5-0.6c-0.1-0.3-0.2-0.6-0.2-0.9c0-0.5,0.1-0.8,0.3-1.2
			c0.2-0.3,0.4-0.6,0.7-0.8c0.3-0.2,0.6-0.3,1-0.4c0.4-0.1,0.7-0.1,1.1-0.1c0.6,0,1.1,0.1,1.7,0.3c0.5,0.2,1,0.4,1.4,0.8L368.2,78.2
			z"/>
	</g>
</g>
</svg>
